<?xml version="1.0" encoding="UTF-8"?>
<svg xmlns="http://www.w3.org/2000/svg" xmlns:xlink="http://www.w3.org/1999/xlink" width="150px" height="150px" viewBox="0 0 150 150" version="1.1">
<g id="surface1">
<path style=" stroke:none;fill-rule:evenodd;fill:rgb(15.294118%,22.352941%,28.235294%);fill-opacity:1;" d="M 75 150 C 116.425781 150 150 116.425781 150 75 C 150 33.574219 116.425781 0 75 0 C 33.574219 0 0 33.574219 0 75 C 0 116.425781 33.574219 150 75 150 Z M 75 150 "/>
<path style=" stroke:none;fill-rule:evenodd;fill:rgb(100%,100%,100%);fill-opacity:1;" d="M 37.5 54.503906 L 37.5 96.972656 C 37.5 99.28125 39.1875 101.15625 41.519531 101.15625 L 107.800781 101.15625 C 110.132812 101.15625 111.820312 99.257812 111.820312 96.972656 L 111.820312 54.503906 C 111.820312 51.972656 110.308594 50.003906 107.800781 50.003906 L 41.519531 50.003906 C 38.917969 50.003906 37.5 52.019531 37.5 54.503906 M 43.605469 58.207031 C 43.605469 57.175781 44.226562 56.589844 45.222656 56.589844 C 45.832031 56.589844 69.914062 71.859375 71.378906 72.75 L 75.140625 75.09375 C 76.335938 74.296875 77.542969 73.605469 78.773438 72.785156 C 81.304688 71.167969 103.804688 56.589844 104.425781 56.589844 C 105.410156 56.589844 106.03125 57.175781 106.03125 58.207031 C 106.03125 59.285156 103.945312 60.363281 102.585938 61.195312 C 94.042969 66.398438 85.5 72.082031 77.039062 77.472656 C 76.546875 77.8125 75.597656 78.527344 74.871094 78.410156 C 74.074219 78.292969 49.570312 62.542969 45.105469 59.929688 C 44.4375 59.53125 43.605469 59.167969 43.605469 58.207031 "/>
</g>
</svg>
