<?xml version="1.0" encoding="UTF-8"?>
<svg xmlns="http://www.w3.org/2000/svg" xmlns:xlink="http://www.w3.org/1999/xlink" width="150px" height="150px" viewBox="0 0 150 150" version="1.1">
<g id="surface1">
<path style=" stroke:none;fill-rule:nonzero;fill:rgb(15.294118%,22.352941%,28.235294%);fill-opacity:1;" d="M 139.792969 39.152344 C 133.089844 27.667969 124.007812 18.585938 112.523438 11.882812 C 101.050781 5.179688 88.511719 1.828125 74.917969 1.828125 C 61.324219 1.828125 48.796875 5.179688 37.3125 11.882812 C 25.839844 18.585938 16.746094 27.667969 10.042969 39.152344 C 3.351562 50.625 0 63.164062 0 76.757812 C 0 93.082031 4.757812 107.753906 14.296875 120.796875 C 23.824219 133.839844 36.128906 142.863281 51.210938 147.867188 C 52.96875 148.195312 54.269531 147.960938 55.113281 147.1875 C 55.957031 146.402344 56.390625 145.429688 56.390625 144.257812 C 56.390625 144.070312 56.367188 142.3125 56.332031 138.996094 C 56.296875 135.679688 56.285156 132.785156 56.285156 130.3125 L 54.046875 130.699219 C 52.617188 130.96875 50.8125 131.074219 48.632812 131.039062 C 46.453125 131.015625 44.191406 130.78125 41.847656 130.359375 C 39.503906 129.9375 37.324219 128.964844 35.308594 127.429688 C 33.292969 125.90625 31.863281 123.902344 31.019531 121.441406 L 30.046875 119.191406 C 29.390625 117.691406 28.371094 116.039062 26.976562 114.222656 C 25.570312 112.394531 24.164062 111.164062 22.734375 110.507812 L 22.042969 110.015625 C 21.585938 109.699219 21.164062 109.300781 20.777344 108.855469 C 20.390625 108.398438 20.097656 107.941406 19.898438 107.484375 C 19.710938 107.027344 19.863281 106.652344 20.390625 106.359375 C 20.90625 106.066406 21.855469 105.925781 23.214844 105.925781 L 25.171875 106.21875 C 26.472656 106.476562 28.078125 107.25 30 108.550781 C 31.910156 109.851562 33.492188 111.550781 34.722656 113.625 C 36.222656 116.296875 38.027344 118.324219 40.136719 119.730469 C 42.257812 121.125 44.390625 121.828125 46.535156 121.828125 C 48.679688 121.828125 50.53125 121.664062 52.089844 121.335938 C 53.648438 121.007812 55.113281 120.527344 56.484375 119.871094 C 57.070312 115.511719 58.664062 112.160156 61.265625 109.828125 C 57.550781 109.429688 54.222656 108.84375 51.257812 108.070312 C 48.304688 107.285156 45.246094 106.019531 42.09375 104.261719 C 38.941406 102.503906 36.316406 100.324219 34.242188 97.722656 C 32.15625 95.121094 30.445312 91.710938 29.121094 87.480469 C 27.785156 83.25 27.117188 78.375 27.117188 72.84375 C 27.117188 64.980469 29.683594 58.277344 34.828125 52.757812 C 32.414062 46.839844 32.648438 40.207031 35.507812 32.847656 C 37.394531 32.261719 40.195312 32.707031 43.898438 34.171875 C 47.601562 35.636719 50.320312 36.890625 52.042969 37.921875 C 53.765625 38.964844 55.148438 39.84375 56.191406 40.558594 C 62.238281 38.871094 68.484375 38.027344 74.917969 38.027344 C 81.363281 38.027344 87.597656 38.871094 93.65625 40.558594 L 97.359375 38.214844 C 99.890625 36.65625 102.890625 35.226562 106.335938 33.925781 C 109.78125 32.625 112.417969 32.261719 114.234375 32.847656 C 117.164062 40.207031 117.421875 46.839844 115.019531 52.757812 C 120.152344 58.277344 122.730469 64.980469 122.730469 72.855469 C 122.730469 78.375 122.050781 83.273438 120.726562 87.527344 C 119.390625 91.792969 117.667969 95.203125 115.558594 97.769531 C 113.4375 100.347656 110.8125 102.503906 107.648438 104.261719 C 104.496094 106.019531 101.4375 107.285156 98.484375 108.070312 C 95.519531 108.84375 92.191406 109.429688 88.488281 109.828125 C 91.863281 112.746094 93.550781 117.363281 93.550781 123.679688 L 93.550781 144.257812 C 93.550781 145.429688 93.960938 146.402344 94.78125 147.1875 C 95.589844 147.960938 96.867188 148.195312 98.625 147.867188 C 113.71875 142.863281 126.023438 133.839844 135.550781 120.796875 C 145.078125 107.753906 149.847656 93.070312 149.847656 76.746094 C 149.835938 63.164062 146.484375 50.625 139.792969 39.152344 Z M 139.792969 39.152344 "/>
</g>
</svg>
