<?xml version="1.0" encoding="UTF-8"?>
<svg xmlns="http://www.w3.org/2000/svg" xmlns:xlink="http://www.w3.org/1999/xlink" width="150px" height="150px" viewBox="0 0 150 150" version="1.1">
<g id="surface1">
<path style=" stroke:none;fill-rule:evenodd;fill:rgb(15.294118%,22.352941%,28.235294%);fill-opacity:1;" d="M 0 75 C 0 33.574219 33.574219 0 75 0 C 116.425781 0 150 33.574219 150 75 C 150 116.425781 116.425781 150 75 150 C 33.574219 150 0 116.425781 0 75 Z M 53.003906 62.121094 L 36 62.121094 L 36 113.191406 L 53.003906 113.191406 Z M 54.117188 46.324219 C 54.011719 41.308594 50.425781 37.5 44.613281 37.5 C 38.800781 37.5 35.003906 41.308594 35.003906 46.324219 C 35.003906 51.222656 38.683594 55.148438 44.390625 55.148438 L 44.507812 55.148438 C 50.425781 55.148438 54.117188 51.222656 54.117188 46.324219 Z M 114.292969 83.90625 C 114.292969 68.214844 105.914062 60.914062 94.722656 60.914062 C 85.699219 60.914062 81.667969 65.871094 79.40625 69.351562 L 79.40625 62.121094 L 62.414062 62.121094 C 62.636719 66.914062 62.414062 113.191406 62.414062 113.191406 L 79.40625 113.191406 L 79.40625 84.667969 C 79.40625 83.144531 79.523438 81.621094 79.96875 80.519531 C 81.199219 77.472656 83.988281 74.320312 88.6875 74.320312 C 94.839844 74.320312 97.300781 79.007812 97.300781 85.863281 L 97.300781 113.191406 L 114.292969 113.191406 Z M 114.292969 83.90625 "/>
</g>
</svg>
