<?xml version="1.0" encoding="UTF-8"?>
<svg xmlns="http://www.w3.org/2000/svg" xmlns:xlink="http://www.w3.org/1999/xlink" width="150px" height="150px" viewBox="0 0 150 150" version="1.1">
<g id="surface1">
<path style=" stroke:none;fill-rule:nonzero;fill:rgb(15.294118%,22.352941%,28.235294%);fill-opacity:1;" d="M 75 0 C 33.410156 0 0 33.410156 0 75 C 0 116.589844 33.410156 150 75 150 C 116.589844 150 150 116.589844 150 75 C 150 33.410156 116.589844 0 75 0 Z M 57.269531 83.179688 L 52.5 87.949219 C 51.140625 89.320312 49.089844 89.320312 47.730469 87.949219 L 39.199219 79.429688 C 33.75 73.980469 30.679688 66.820312 30.679688 58.980469 C 30.679688 43.300781 43.640625 30.339844 59.320312 30.339844 C 66.820312 30.339844 74.320312 33.410156 79.769531 38.859375 L 88.300781 47.390625 C 89.660156 48.75 89.660156 50.800781 88.300781 52.160156 L 83.519531 56.929688 C 82.160156 58.300781 80.109375 58.300781 78.75 56.929688 L 70.230469 48.410156 C 67.5 45.679688 63.75 43.980469 59.660156 43.980469 C 51.480469 43.980469 44.660156 50.800781 44.660156 58.980469 C 44.660156 63.070312 46.359375 66.820312 49.089844 69.550781 L 57.609375 78.070312 C 58.300781 79.769531 58.300781 81.820312 57.269531 83.179688 Z M 58.980469 63.75 L 63.75 58.980469 C 65.109375 57.609375 67.160156 57.609375 68.519531 58.980469 L 91.019531 81.480469 C 92.390625 82.839844 92.390625 84.890625 91.019531 86.25 L 86.25 91.019531 C 84.890625 92.390625 82.839844 92.390625 81.480469 91.019531 L 58.980469 68.519531 C 57.609375 67.160156 57.609375 65.109375 58.980469 63.75 Z M 90.679688 119.320312 C 83.179688 119.320312 75.679688 116.25 70.230469 110.800781 L 61.699219 102.269531 C 60.339844 100.910156 60.339844 98.859375 61.699219 97.5 L 66.480469 92.730469 C 67.839844 91.359375 69.890625 91.359375 71.25 92.730469 L 79.769531 101.25 C 82.5 103.980469 86.25 105.679688 90.339844 105.679688 C 98.519531 105.679688 105.339844 98.859375 105.339844 90.679688 C 105.339844 86.589844 103.640625 82.839844 100.910156 80.109375 L 92.390625 71.589844 C 91.019531 70.230469 91.019531 68.179688 92.390625 66.820312 L 97.160156 62.050781 C 98.519531 60.679688 100.570312 60.679688 101.929688 62.050781 L 110.449219 70.570312 C 115.910156 76.019531 118.980469 83.179688 118.980469 91.019531 C 119.320312 106.359375 106.359375 119.320312 90.679688 119.320312 Z M 90.679688 119.320312 "/>
</g>
</svg>
